# xmcd
#
# Track frame offsets: 
#        150
#        14834
#        26776
#        39291
#        53473
#        71001
#        88108
#        103090
#        127525
#        145032
#        162263
#        180700
#        200375
#        213465
#        226277
#        238667
#        256939
#        270169
#
# Disc length: 3852 seconds
#
# Revision: 0
# Processed by: cddbd v1.5.2PL0 Copyright (c) Steve Scherf et al.
# Submitted via: ExactAudioCopyFreeDBPlugin 1.0
#
DISCID=ee0f0a12
DTITLE=Varius - Varius Soul
DYEAR=1900
DGENRE=Soul
TTITLE0=Marvin Gaye - Mercy mercy me
TTITLE1=The Impressions - Get ready
TTITLE2=Little Milton - Baby, I Love you
TTITLE3=The Spinners - It's a shame
TTITLE4=The Temptations - Just my imgination
TTITLE5=Bobby Bland - Ain't no love in the heart of the city
TTITLE6=Gloria Gaynor - I will survive
TTITLE7=Diana Ross - I'm comming out
TTITLE8=Womack and Womack - Teardrops
TTITLE9=Shanice - Love your smile
TTITLE10=The Dells - Oh what a night
TTITLE11=The Commodores - Easy
TTITLE12=Fontella Bass - Rescue me 
TTITLE13=Gladys Knight and The Pips - I wish it would rain
TTITLE14=The Four Tops - Baby, I need your lovin
TTITLE15=Dennis Edwards - Don't look any further
TTITLE16=Jimmy Buffin - What becomes of the brocenhearted
TTITLE17=The Floaters - Float on
EXTD=
EXTT0=
EXTT1=
EXTT2=
EXTT3=
EXTT4=
EXTT5=
EXTT6=
EXTT7=
EXTT8=
EXTT9=
EXTT10=
EXTT11=
EXTT12=
EXTT13=
EXTT14=
EXTT15=
EXTT16=
EXTT17=
PLAYORDER=
